<svg width="17" height="16" viewBox="0 0 17 16" fill="none" xmlns="http://www.w3.org/2000/svg">
<path fill-rule="evenodd" clip-rule="evenodd" d="M8.69916 0.386942C8.62759 0.156232 8.42232 0 8.19104 0C7.95965 0 7.75449 0.156223 7.68292 0.386942L6.04028 5.68363H0.725227C0.493837 5.68363 0.288682 5.83986 0.217111 6.07058C0.145545 6.30128 0.224028 6.55376 0.41105 6.69658L4.71146 9.97026L3.06882 15.267C2.99726 15.4977 3.07526 15.7507 3.26276 15.893C3.44978 16.0357 3.70361 16.0357 3.89109 15.893L8.19089 12.6193L12.4907 15.893C12.6782 16.0357 12.932 16.0357 13.119 15.893C13.3065 15.7507 13.3846 15.4977 13.313 15.267L11.6703 9.97026L15.9707 6.69658C16.1578 6.55386 16.2364 6.30129 16.1647 6.07058C16.0931 5.83987 15.8878 5.68363 15.6566 5.68363H10.3415L8.69886 0.386942H8.69916Z" fill="#FDC51C"/>
</svg>
